<svg width="55" height="29" viewBox="0 0 55 29" fill="none" xmlns="http://www.w3.org/2000/svg">
<path d="M33.0197 27.9703L26.9092 2.61296L29.3864 0.0555035L42.0108 2.56616L52.7126 0.00201416L54.9377 3.26821L39.0429 25.5666C38.377 26.5002 37.4549 27.2233 36.3868 27.6495C35.3187 28.0758 34.1498 28.1871 33.0197 27.9703ZM31.803 4.83611L36.0515 22.4709L48.2121 5.42115L42.5485 6.77845L41.6343 6.7985L31.803 4.83611Z" fill="#F25D27"/>
<path d="M2.22507 28.0772L0 24.8111L15.8981 2.51269C16.5632 1.57816 17.4852 0.854306 18.5536 0.427956C19.6219 0.00160678 20.7912 -0.109137 21.9213 0.109008L28.0318 25.4663L25.5547 28.0238L12.9303 25.5131L2.22507 28.0772ZM13.3168 21.2874L23.1481 23.2432L18.8862 5.60838L6.72898 22.6581L12.379 21.3209L13.3168 21.2874Z" fill="#F25D27"/>
</svg>
